<?xml version="1.0" encoding="UTF-8" standalone="no"?>
<!DOCTYPE svg PUBLIC "-//W3C//DTD SVG 1.1//EN"
 "http://www.w3.org/Graphics/SVG/1.1/DTD/svg11.dtd">
<!-- Generated by graphviz version 9.0.0 (0)
 -->
<!-- Pages: 1 -->
<svg width="344pt" height="247pt"
 viewBox="0.00 0.00 344.45 247.13" xmlns="http://www.w3.org/2000/svg" xmlns:xlink="http://www.w3.org/1999/xlink">
<g id="graph0" class="graph" transform="scale(1 1) rotate(0) translate(4 243.13)">
<polygon fill="white" stroke="none" points="-4,4 -4,-243.13 340.45,-243.13 340.45,4 -4,4"/>
<g id="clust1" class="cluster">
<title>cluster30</title>
<path fill="none" stroke="black" d="M111.73,-8C111.73,-8 223.73,-8 223.73,-8 229.73,-8 235.73,-14 235.73,-20 235.73,-20 235.73,-117.82 235.73,-117.82 235.73,-123.82 229.73,-129.82 223.73,-129.82 223.73,-129.82 111.73,-129.82 111.73,-129.82 105.73,-129.82 99.73,-123.82 99.73,-117.82 99.73,-117.82 99.73,-20 99.73,-20 99.73,-14 105.73,-8 111.73,-8"/>
<text text-anchor="middle" x="220.98" y="-15.2" font-family="Times,serif" font-size="14.00">30</text>
</g>
<!-- alpha -->
<g id="node1" class="node">
<title>alpha</title>
<ellipse fill="none" stroke="black" cx="79.73" cy="-198.48" rx="79.73" ry="40.66"/>
<text text-anchor="middle" x="79.73" y="-209.93" font-family="Times,serif" font-size="14.00">alpha</text>
<text text-anchor="middle" x="79.73" y="-193.43" font-family="Times,serif" font-size="14.00">~</text>
<text text-anchor="middle" x="79.73" y="-176.93" font-family="Times,serif" font-size="14.00">TruncatedNormal</text>
</g>
<!-- y -->
<g id="node3" class="node">
<title>y</title>
<ellipse fill="lightgrey" stroke="black" cx="167.73" cy="-81.16" rx="59.57" ry="40.66"/>
<text text-anchor="middle" x="167.73" y="-92.61" font-family="Times,serif" font-size="14.00">y</text>
<text text-anchor="middle" x="167.73" y="-76.11" font-family="Times,serif" font-size="14.00">~</text>
<text text-anchor="middle" x="167.73" y="-59.61" font-family="Times,serif" font-size="14.00">WeibullBeta</text>
</g>
<!-- alpha&#45;&gt;y -->
<g id="edge1" class="edge">
<title>alpha&#45;&gt;y</title>
<path fill="none" stroke="black" d="M108.3,-160.04C116.37,-149.45 125.25,-137.83 133.61,-126.86"/>
<polygon fill="black" stroke="black" points="136.29,-129.12 139.58,-119.05 130.73,-124.87 136.29,-129.12"/>
</g>
<!-- beta -->
<g id="node2" class="node">
<title>beta</title>
<ellipse fill="none" stroke="black" cx="256.73" cy="-198.48" rx="79.73" ry="40.66"/>
<text text-anchor="middle" x="256.73" y="-209.93" font-family="Times,serif" font-size="14.00">beta</text>
<text text-anchor="middle" x="256.73" y="-193.43" font-family="Times,serif" font-size="14.00">~</text>
<text text-anchor="middle" x="256.73" y="-176.93" font-family="Times,serif" font-size="14.00">TruncatedNormal</text>
</g>
<!-- beta&#45;&gt;y -->
<g id="edge2" class="edge">
<title>beta&#45;&gt;y</title>
<path fill="none" stroke="black" d="M228.08,-160.35C219.74,-149.55 210.54,-137.63 201.9,-126.43"/>
<polygon fill="black" stroke="black" points="204.92,-124.62 196.03,-118.84 199.37,-128.89 204.92,-124.62"/>
</g>
</g>
</svg>
