<?xml version="1.0" encoding="UTF-8" standalone="no"?>
<!DOCTYPE svg PUBLIC "-//W3C//DTD SVG 1.1//EN"
 "http://www.w3.org/Graphics/SVG/1.1/DTD/svg11.dtd">
<!-- Generated by graphviz version 9.0.0 (0)
 -->
<!-- Pages: 1 -->
<svg width="204pt" height="247pt"
 viewBox="0.00 0.00 204.45 247.13" xmlns="http://www.w3.org/2000/svg" xmlns:xlink="http://www.w3.org/1999/xlink">
<g id="graph0" class="graph" transform="scale(1 1) rotate(0) translate(4 243.13)">
<polygon fill="white" stroke="none" points="-4,4 -4,-243.13 200.45,-243.13 200.45,4 -4,4"/>
<g id="clust1" class="cluster">
<title>cluster30</title>
<path fill="none" stroke="black" d="M41.72,-8C41.72,-8 153.72,-8 153.72,-8 159.72,-8 165.72,-14 165.72,-20 165.72,-20 165.72,-117.82 165.72,-117.82 165.72,-123.82 159.72,-129.82 153.72,-129.82 153.72,-129.82 41.72,-129.82 41.72,-129.82 35.72,-129.82 29.72,-123.82 29.72,-117.82 29.72,-117.82 29.72,-20 29.72,-20 29.72,-14 35.72,-8 41.72,-8"/>
<text text-anchor="middle" x="150.97" y="-15.2" font-family="Times,serif" font-size="14.00">30</text>
</g>
<!-- alpha -->
<g id="node1" class="node">
<title>alpha</title>
<ellipse fill="none" stroke="black" cx="44.72" cy="-198.48" rx="44.72" ry="40.66"/>
<text text-anchor="middle" x="44.72" y="-209.93" font-family="Times,serif" font-size="14.00">alpha</text>
<text text-anchor="middle" x="44.72" y="-193.43" font-family="Times,serif" font-size="14.00">~</text>
<text text-anchor="middle" x="44.72" y="-176.93" font-family="Times,serif" font-size="14.00">Uniform</text>
</g>
<!-- y -->
<g id="node3" class="node">
<title>y</title>
<ellipse fill="lightgrey" stroke="black" cx="97.72" cy="-81.16" rx="59.57" ry="40.66"/>
<text text-anchor="middle" x="97.72" y="-92.61" font-family="Times,serif" font-size="14.00">y</text>
<text text-anchor="middle" x="97.72" y="-76.11" font-family="Times,serif" font-size="14.00">~</text>
<text text-anchor="middle" x="97.72" y="-59.61" font-family="Times,serif" font-size="14.00">WeibullBeta</text>
</g>
<!-- alpha&#45;&gt;y -->
<g id="edge1" class="edge">
<title>alpha&#45;&gt;y</title>
<path fill="none" stroke="black" d="M61.64,-160.67C66.05,-151.08 70.86,-140.61 75.5,-130.52"/>
<polygon fill="black" stroke="black" points="78.61,-132.12 79.61,-121.58 72.25,-129.2 78.61,-132.12"/>
</g>
<!-- beta -->
<g id="node2" class="node">
<title>beta</title>
<ellipse fill="none" stroke="black" cx="151.72" cy="-198.48" rx="44.72" ry="40.66"/>
<text text-anchor="middle" x="151.72" y="-209.93" font-family="Times,serif" font-size="14.00">beta</text>
<text text-anchor="middle" x="151.72" y="-193.43" font-family="Times,serif" font-size="14.00">~</text>
<text text-anchor="middle" x="151.72" y="-176.93" font-family="Times,serif" font-size="14.00">Uniform</text>
</g>
<!-- beta&#45;&gt;y -->
<g id="edge2" class="edge">
<title>beta&#45;&gt;y</title>
<path fill="none" stroke="black" d="M134.49,-160.67C130,-151.08 125.09,-140.61 120.37,-130.52"/>
<polygon fill="black" stroke="black" points="123.59,-129.14 116.18,-121.57 117.25,-132.11 123.59,-129.14"/>
</g>
</g>
</svg>
